<svg height="512pt" viewBox="0 0 512 512" width="512pt" xmlns="http://www.w3.org/2000/svg"><path d="m512 256c0 141.386719-114.613281 256-256 256s-256-114.613281-256-256 114.613281-256 256-256 256 114.613281 256 256zm0 0" fill="#ffcf11"/><path d="m457.546875 456.773438h-72.617187c-4.484376 0-8.117188-3.636719-8.117188-8.121094v-26.515625c0-4.484375 3.632812-8.117188 8.117188-8.117188h72.617187c4.484375 0 8.121094 3.632813 8.121094 8.117188v26.515625c0 4.484375-3.636719 8.121094-8.121094 8.121094zm0 0" fill="#3e4a68"/><path d="m465.671875 335.050781v100.347657h-392.300781c-19.332032-19.6875-35.511719-42.476563-47.710938-67.570313-5.128906-10.539063-9.558594-21.488281-13.21875-32.777344zm0 0" fill="#c7d9ff"/><path d="m448.28125 98.511719v235.289062h-436.242188c-5.597656-17.582031-9.359374-35.980469-11.039062-54.980469-.429688-4.960937-.730469-9.960937-.878906-15-.0820315-2.601562-.121094-5.199218-.121094-7.820312 0-62.648438 22.511719-120.039062 59.878906-164.539062 9.0625-10.800782 19.011719-20.839844 29.722656-30 12.917969-11.0625 26.949219-20.859376 41.910157-29.199219h250.519531c32.148438 0 58.957031 22.898437 64.96875 53.289062.839844 4.1875 1.28125 8.527344 1.28125 12.960938zm0 0" fill="#303a59"/><path d="m448.28125 124.5v209.300781h-436.242188c-5.597656-17.582031-9.359374-35.980469-11.039062-54.980469-.429688-4.960937-.730469-9.960937-.878906-15h308.25v-54.832031c0-52.636719 42.828125-95.476562 95.480468-95.476562 16.027344 0 31.148438 3.976562 44.429688 10.988281zm0 0" fill="#232d47"/><path d="m448.28125 278.820312v89.007813h-422.621094c-5.128906-10.539063-9.558594-21.488281-13.21875-32.777344-.132812-.410156-.269531-.832031-.402344-1.25-5.597656-17.582031-9.359374-35.980469-11.039062-54.980469zm0 0" fill="#3e4a68"/><path d="m308.371094 278.816406h139.90625v89.007813h-139.90625zm0 0" fill="#303a59"/><g fill="#3e4a68"><path d="m463.558594 414.019531h-119.417969c-11.472656 0-20.769531-9.300781-20.769531-20.769531v-184.257812c0-44.445313 36.03125-80.476563 80.476562-80.476563 44.449219 0 80.476563 36.03125 80.476563 80.476563v184.257812c0 11.46875-9.296875 20.769531-20.765625 20.769531zm0 0"/><path d="m403.851562 76.460938c0 8.277343-6.722656 15-15 15h-328.972656c9.0625-10.800782 19.011719-20.839844 29.722656-30h299.25c4.136719 0 7.886719 1.679687 10.609376 4.398437 2.710937 2.710937 4.390624 6.460937 4.390624 10.601563zm0 0"/></g></svg>